<svg xmlns="http://www.w3.org/2000/svg" width="80" height="80" fill="none" xmlns:v="https://vecta.io/nano"><g clip-path="url(#B)"><path d="M0 0H80V80H0V0Z" fill="url(#A)"/><path d="M34.065 55.633H37v-2.017h-2.935v2.017zm4.935 0h3v-2.017h-3v2.017zM27 14.629l-13 6.453v40.111l13 4.396v-50.96zm2 12.764v26.222h3v2.017h-3v11.359a1.01 1.01 0 0 1-.416.819c-.128.093-.277.155-.434.179s-.317.01-.468-.041l-15-5.072A1.01 1.01 0 0 1 12 61.92V20.454a1.01 1.01 0 0 1 .559-.905l15-7.445a.99.99 0 0 1 .969.048 1.01 1.01 0 0 1 .472.856v12.368h3v2.017h-3zm15 28.239h3v-2.017h-3v2.017zm.065-28.239H47v-2.017h-2.935v2.017zm-5 0H42v-2.017h-2.935v2.017zm-5 0H37v-2.017h-2.935v2.017zM66 21.082l-13-6.453v50.96l13-4.396V21.082zm2 40.838a1.01 1.01 0 0 1-.682.956l-15 5.072a.99.99 0 0 1-.902-.138c-.129-.094-.234-.217-.306-.359s-.11-.3-.11-.459V55.632h-1.935v-2.017H51V27.393h-1.935v-2.017H51V13.009a1.01 1.01 0 0 1 .472-.856.99.99 0 0 1 .478-.151c.17-.009.339.027.491.103l15 7.445a1.01 1.01 0 0 1 .559.905v41.466h0zM42.934 33.807l-1.868-.724-5 13.111 1.868.724 5-13.111zm6.773 6.402c.188-.19.293-.446.293-.713s-.105-.523-.293-.713l-4-4.034-1.414 1.426 3.293 3.321-3.293 3.321 1.414 1.426 4-4.034zm-15.414 4.034l-4-4.034c-.188-.19-.293-.446-.293-.713s.105-.523.293-.713l4-4.034 1.414 1.426-3.293 3.321 3.293 3.321-1.414 1.426z" fill="#fff"/></g><defs><linearGradient id="A" x1="0" y1="8000" x2="8000" y2="0" gradientUnits="userSpaceOnUse"><stop stop-color="#b0084d"/><stop offset="1" stop-color="#ff4f8b"/></linearGradient><clipPath id="B"><path fill="#fff" d="M0 0h80v80H0z"/></clipPath></defs></svg>