<svg xmlns="http://www.w3.org/2000/svg" width="80" height="80" fill="none" xmlns:v="https://vecta.io/nano"><g clip-path="url(#B)"><path d="M0 0H80V80H0V0Z" fill="url(#A)"/><path d="M52 56.523v-4.846l3-1.2v4.846l-3 1.2zm-5-6.046l3 1.2v4.846l-3-1.2v-4.846zm-6 13.046v-4.846l3-1.2v4.846l-3 1.2zm-5-6.046l3 1.2v4.846l-3-1.2v-4.846zm-6-.954v-4.846l3-1.2v4.846l-3 1.2zm-5-6.046l3 1.2v4.846l-3-1.2v-4.846zm4-2.4l2.308.923-2.308.923L26.692 49 29 48.077zm11 7l2.308.923-2.308.923L37.692 56 40 55.077zm11-7l2.308.923-2.308.923L48.692 49 51 48.077zm5.371-.006l-5-2c-.238-.094-.504-.094-.742 0l-5 2A1 1 0 0 0 45 49v5.923l-4.629-1.852c-.238-.094-.504-.094-.742 0L35 54.923V49a1 1 0 0 0-.629-.929l-5-2c-.238-.094-.504-.094-.742 0l-5 2A1 1 0 0 0 23 49v7a1 1 0 0 0 .629.929l5 2c.119.047.245.071.371.071s.252-.024.371-.071L34 57.077V63a1 1 0 0 0 .629.929l5 2c.119.047.245.071.371.071s.252-.024.371-.071l5-2A1 1 0 0 0 46 63v-5.923l4.629 1.852c.119.047.245.071.371.071s.252-.024.371-.071l5-2A1 1 0 0 0 57 56v-7a1 1 0 0 0-.629-.929zM65 35.938c0 5.845-12.881 9-25 9s-25-3.155-25-9c0-2.791 3.095-5.248 8.715-6.919l.57 1.917C19.791 32.272 17 34.189 17 35.938c0 3.311 9.445 7 23 7s23-3.689 23-7c0-1.749-2.791-3.666-7.285-5.002l.57-1.917C61.905 30.69 65 33.147 65 35.938h0zM40 17.071L50.214 21 40 24.929 29.786 21 40 17.071zm10.58 19.771c-1.886.844-5.052 1.827-9.58 1.959V26.687l11-4.23v12.191c0 .951-.556 1.812-1.42 2.194zM28 34.648V22.457l11 4.23v12.114c-4.528-.132-7.694-1.115-9.584-1.961-.86-.38-1.416-1.241-1.416-2.192zm.604 4.019c2.201.985 5.965 2.16 11.396 2.16s9.195-1.175 11.393-2.158C52.977 37.968 54 36.39 54 34.648V21a1 1 0 0 0-.641-.934l-13-5a1.01 1.01 0 0 0-.718 0l-13 5A1 1 0 0 0 26 21v13.648a4.39 4.39 0 0 0 2.604 4.019z" fill="#fff"/></g><defs><linearGradient id="A" x1="0" y1="8000" x2="8000" y2="0" gradientUnits="userSpaceOnUse"><stop stop-color="#c8511b"/><stop offset="1" stop-color="#f90"/></linearGradient><clipPath id="B"><path fill="#fff" d="M0 0h80v80H0z"/></clipPath></defs></svg>