<svg width="4039" height="629" viewBox="0 0 4039 629" fill="none" xmlns="http://www.w3.org/2000/svg">
<path d="M245.22 78.3871C175.16 78.5371 110.885 110.181 77.12 168.667C71.897 177.712 68.29 187.084 64.88 196.667C122.157 117.996 219.372 87.6001 292.07 129.57C370.892 175.076 390.728 287.823 336.475 381.793C310.62 426.575 272.618 458.819 231.325 475.516C326.705 504.776 427.023 475.209 472.285 396.812C526.312 303.238 481.19 176.039 372.23 113.132C331.372 89.5421 287.254 78.2951 245.22 78.3851V78.3871ZM220.457 128.332C180.1 128.455 136.349 144.877 98.203 177.74C19.45 245.588 -6.02 358.192 41.32 429.244C45.897 436.114 51.22 441.794 56.754 447.381C20.79 378.21 31.144 291.728 83.69 246.46C140.66 197.377 225.133 215.4 272.67 286.752C295.324 320.755 305.375 360.665 303.596 398.532C354.666 331.402 366.602 242.702 326.943 183.176H326.941C302.534 146.54 263.419 128.2 220.457 128.332ZM157.097 236.042C130.337 236.125 103.869 245.992 84.047 265.692C35.199 314.242 36.192 407.882 85.191 471.632C134.191 535.382 213.514 547.706 262.361 499.156C215.254 528.801 177.481 525.456 133.583 478.24C94.133 435.81 109.148 355.44 158.203 306.686C181.579 283.452 209.331 270.874 235.878 268.99C214.398 246.957 185.582 235.956 157.098 236.043L157.097 236.042Z" fill="#478AF5"/>
<path d="M783 525C756.667 525 732.333 520.333 710 511C688 501.333 668.667 487.833 652 470.5C635.667 453.167 623 432.833 614 409.5C605 386.167 600.5 360.667 600.5 333C600.5 305 605 279.333 614 256C623 232.667 635.667 212.333 652 195C668.333 177.667 687.667 164.333 710 155C732.333 145.333 756.667 140.5 783 140.5C808.667 140.5 831.667 145 852 154C872.667 163 890 174.667 904 189C918.333 203.333 928.5 218.667 934.5 235L889.5 255.5C880.833 234.833 867.333 218.167 849 205.5C830.667 192.5 808.667 186 783 186C757 186 733.833 192.167 713.5 204.5C693.5 216.833 677.833 234 666.5 256C655.167 278 649.5 303.667 649.5 333C649.5 362 655.167 387.5 666.5 409.5C677.833 431.5 693.5 448.667 713.5 461C733.833 473.333 757 479.5 783 479.5C808.667 479.5 830.667 473.167 849 460.5C867.333 447.5 880.833 430.667 889.5 410L934.5 430.5C928.5 446.833 918.333 462.167 904 476.5C890 490.833 872.667 502.5 852 511.5C831.667 520.5 808.667 525 783 525ZM995.648 519V140.5H1042.15V519H995.648ZM1242.3 525C1216.3 525 1192.8 519 1171.8 507C1150.8 494.667 1134.13 477.833 1121.8 456.5C1109.47 435.167 1103.3 411 1103.3 384C1103.3 357 1109.3 333 1121.3 312C1133.63 291 1150.3 274.333 1171.3 262C1192.3 249.667 1215.97 243.5 1242.3 243.5C1268.3 243.5 1291.8 249.667 1312.8 262C1333.8 274 1350.3 290.5 1362.3 311.5C1374.63 332.5 1380.8 356.667 1380.8 384C1380.8 411.333 1374.47 435.667 1361.8 457C1349.13 478 1332.3 494.667 1311.3 507C1290.63 519 1267.63 525 1242.3 525ZM1242.3 480C1258.97 480 1273.97 475.833 1287.3 467.5C1300.97 459.167 1311.63 447.667 1319.3 433C1327.3 418.333 1331.3 402 1331.3 384C1331.3 365.667 1327.3 349.5 1319.3 335.5C1311.63 321.167 1300.97 309.833 1287.3 301.5C1273.97 292.833 1258.97 288.5 1242.3 288.5C1225.3 288.5 1209.97 292.833 1196.3 301.5C1182.97 309.833 1172.3 321.167 1164.3 335.5C1156.3 349.5 1152.3 365.667 1152.3 384C1152.3 402 1156.3 418.333 1164.3 433C1172.3 447.667 1182.97 459.167 1196.3 467.5C1209.97 475.833 1225.3 480 1242.3 480ZM1536.95 525C1517.62 525 1500.12 520.5 1484.45 511.5C1469.12 502.5 1457.12 490 1448.45 474C1440.12 457.667 1435.95 439 1435.95 418V249.5H1482.45V413C1482.45 426.333 1485.12 438 1490.45 448C1496.12 458 1503.78 465.833 1513.45 471.5C1523.45 477.167 1534.78 480 1547.45 480C1560.12 480 1571.28 477.167 1580.95 471.5C1590.95 465.833 1598.62 457.667 1603.95 447C1609.62 436.333 1612.45 423.667 1612.45 409V249.5H1659.45V519H1613.95V466.5L1621.45 471C1615.12 488 1604.28 501.333 1588.95 511C1573.95 520.333 1556.62 525 1536.95 525ZM1853.99 525C1828.65 525 1805.82 518.833 1785.49 506.5C1765.49 494.167 1749.65 477.333 1737.99 456C1726.32 434.667 1720.49 410.833 1720.49 384.5C1720.49 357.5 1726.32 333.5 1737.99 312.5C1749.65 291.167 1765.49 274.333 1785.49 262C1805.82 249.667 1828.65 243.5 1853.99 243.5C1876.32 243.5 1896.15 248.333 1913.49 258C1930.82 267.333 1944.49 280 1954.49 296L1946.99 307.5V140.5H1993.99V519H1948.49V461.5L1954.49 469.5C1945.15 487.167 1931.49 500.833 1913.49 510.5C1895.82 520.167 1875.99 525 1853.99 525ZM1857.99 480C1874.99 480 1890.15 475.833 1903.49 467.5C1916.82 459.167 1927.32 447.833 1934.99 433.5C1942.99 418.833 1946.99 402.5 1946.99 384.5C1946.99 366.167 1942.99 349.833 1934.99 335.5C1927.32 320.833 1916.82 309.333 1903.49 301C1890.15 292.667 1874.99 288.5 1857.99 288.5C1841.32 288.5 1826.15 292.833 1812.49 301.5C1799.15 309.833 1788.65 321.167 1780.99 335.5C1773.32 349.5 1769.49 365.833 1769.49 384.5C1769.49 402.5 1773.32 418.833 1780.99 433.5C1788.65 447.833 1799.15 459.167 1812.49 467.5C1825.82 475.833 1840.99 480 1857.99 480ZM2157.89 519V146.5H2393.89V191.5H2206.89V312H2376.39V357H2206.89V519H2157.89ZM2428.75 519V249.5H2474.25V299L2469.25 292C2475.59 276.667 2485.25 265.333 2498.25 258C2511.25 250.333 2527.09 246.5 2545.75 246.5H2562.25V290.5H2538.75C2519.75 290.5 2504.42 296.5 2492.75 308.5C2481.09 320.167 2475.25 336.833 2475.25 358.5V519H2428.75ZM2603.56 519V249.5H2650.06V519H2603.56ZM2603.56 206.5V146.5H2650.06V206.5H2603.56ZM2846.21 525C2820.21 525 2797.04 518.833 2776.71 506.5C2756.38 494.167 2740.38 477.333 2728.71 456C2717.04 434.333 2711.21 410.167 2711.21 383.5C2711.21 356.5 2716.88 332.5 2728.21 311.5C2739.88 290.5 2755.54 274 2775.21 262C2795.21 249.667 2817.54 243.5 2842.21 243.5C2862.21 243.5 2879.88 247.167 2895.21 254.5C2910.88 261.5 2924.04 271.167 2934.71 283.5C2945.71 295.5 2954.04 309.333 2959.71 325C2965.71 340.333 2968.71 356.333 2968.71 373C2968.71 376.667 2968.38 380.833 2967.71 385.5C2967.38 389.833 2966.88 394 2966.21 398H2745.21V358H2939.21L2917.21 376C2920.21 358.667 2918.54 343.167 2912.21 329.5C2905.88 315.833 2896.54 305 2884.21 297C2871.88 289 2857.88 285 2842.21 285C2826.54 285 2812.21 289 2799.21 297C2786.21 305 2776.04 316.5 2768.71 331.5C2761.71 346.167 2758.88 363.667 2760.21 384C2758.88 403.667 2761.88 421 2769.21 436C2776.88 450.667 2787.54 462.167 2801.21 470.5C2815.21 478.5 2830.38 482.5 2846.71 482.5C2864.71 482.5 2879.88 478.333 2892.21 470C2904.54 461.667 2914.54 451 2922.21 438L2961.21 458C2955.88 470.333 2947.54 481.667 2936.21 492C2925.21 502 2912.04 510 2896.71 516C2881.71 522 2864.88 525 2846.21 525ZM3029.34 519V249.5H3074.84V302L3067.34 297.5C3074.01 280.5 3084.67 267.333 3099.34 258C3114.34 248.333 3131.84 243.5 3151.84 243.5C3171.17 243.5 3188.34 247.833 3203.34 256.5C3218.67 265.167 3230.67 277.167 3239.34 292.5C3248.34 307.833 3252.84 325.167 3252.84 344.5V519H3205.84V359.5C3205.84 344.5 3203.17 331.833 3197.84 321.5C3192.51 311.167 3184.84 303.167 3174.84 297.5C3165.17 291.5 3154.01 288.5 3141.34 288.5C3128.67 288.5 3117.34 291.5 3107.34 297.5C3097.67 303.167 3090.01 311.333 3084.34 322C3078.67 332.333 3075.84 344.833 3075.84 359.5V519H3029.34ZM3441.88 525C3416.55 525 3393.71 518.833 3373.38 506.5C3353.38 494.167 3337.55 477.333 3325.88 456C3314.21 434.667 3308.38 410.833 3308.38 384.5C3308.38 357.5 3314.21 333.5 3325.88 312.5C3337.55 291.167 3353.38 274.333 3373.38 262C3393.71 249.667 3416.55 243.5 3441.88 243.5C3464.21 243.5 3484.05 248.333 3501.38 258C3518.71 267.333 3532.38 280 3542.38 296L3534.88 307.5V140.5H3581.88V519H3536.38V461.5L3542.38 469.5C3533.05 487.167 3519.38 500.833 3501.38 510.5C3483.71 520.167 3463.88 525 3441.88 525ZM3445.88 480C3462.88 480 3478.05 475.833 3491.38 467.5C3504.71 459.167 3515.21 447.833 3522.88 433.5C3530.88 418.833 3534.88 402.5 3534.88 384.5C3534.88 366.167 3530.88 349.833 3522.88 335.5C3515.21 320.833 3504.71 309.333 3491.38 301C3478.05 292.667 3462.88 288.5 3445.88 288.5C3429.21 288.5 3414.05 292.833 3400.38 301.5C3387.05 309.833 3376.55 321.167 3368.88 335.5C3361.21 349.5 3357.38 365.833 3357.38 384.5C3357.38 402.5 3361.21 418.833 3368.88 433.5C3376.55 447.833 3387.05 459.167 3400.38 467.5C3413.71 475.833 3428.88 480 3445.88 480ZM3653.85 519V140.5H3700.35V519H3653.85ZM3787 629C3781 629 3775 628.5 3769 627.5C3763 626.833 3757.34 625.333 3752 623V581.5C3755.67 581.833 3760.17 582.5 3765.5 583.5C3771.17 584.5 3776.67 585 3782 585C3797.67 585 3809.5 581.5 3817.5 574.5C3825.84 567.5 3833.67 555.667 3841 539L3858 498.5L3857 539L3742 249.5H3792.5L3882 479.5H3867L3956 249.5H4007.5L3886 551C3880.34 565.333 3873 578.5 3864 590.5C3855.34 602.5 3844.67 611.833 3832 618.5C3819.34 625.5 3804.34 629 3787 629Z" fill="#478AF5"/>
</svg>
