<svg xmlns="http://www.w3.org/2000/svg" width="80" height="80" fill="none" xmlns:v="https://vecta.io/nano"><g clip-path="url(#B)"><path d="M0 0H80V80H0V0Z" fill="url(#A)"/><path d="M55.122 52.123c0-1.654-1.346-3-3-3s-3 1.346-3 3 1.346 3 3 3 3-1.346 3-3zm2 0c0 2.757-2.243 5-5 5a5.01 5.01 0 0 1-5-5c0-2.757 2.243-5 5-5s5 2.243 5 5zm-26.73-14.431c0-1.654-1.346-3-3-3s-3 1.346-3 3 1.345 3 3 3 3-1.346 3-3zm2 0a5.01 5.01 0 0 1-5 5c-2.757 0-5-2.243-5-5a5.01 5.01 0 0 1 5-5 5.01 5.01 0 0 1 5 5zm7.338-15.685c0 1.654 1.346 3 3 3s3-1.346 3-3-1.345-3-3-3-3 1.345-3 3zm-2 0a5.01 5.01 0 0 1 5-5 5.01 5.01 0 0 1 5 5c0 2.757-2.243 5-5 5a5.01 5.01 0 0 1-5-5zM66 40a26.02 26.02 0 0 0-12.988-22.491c-1.437.29-2.827.687-4.561 1.314l-.68-1.881 2.495-.816A25.95 25.95 0 0 0 40 14a25.95 25.95 0 0 0-4.975.492 32.01 32.01 0 0 1 3.232 2.142l-1.209 1.593c-1.428-1.082-2.908-1.999-4.851-3.017a26.03 26.03 0 0 0-18.014 21.918c2.059-.417 4.036-.644 6.231-.698l.049 1.999a32.51 32.51 0 0 0-6.436.776L14 40a25.94 25.94 0 0 0 11.327 21.447c-1.253-3.731-1.877-7.257-1.877-10.701 0-1.964.338-3.577.695-5.284l.249-1.214 1.963.387-.254 1.238c-.35 1.672-.653 3.116-.653 4.873 0 3.908.858 7.949 2.604 12.337C31.773 65.014 35.789 66 40 66c2.756 0 5.446-.44 8.012-1.286 1.007-1.987 1.754-3.862 2.378-6.015l1.921.557a35.68 35.68 0 0 1-1.602 4.421c1.614-.726 3.141-1.624 4.574-2.672-.345-.846-.715-1.687-1.124-2.506l1.789-.895c.348.696.667 1.408.972 2.124A25.81 25.81 0 0 0 66 40zm2 0a27.82 27.82 0 0 1-10.879 22.149 27.44 27.44 0 0 1-5.532 3.323 27.23 27.23 0 0 1-2.553 1.022C46.156 67.493 43.113 68 40 68a28.05 28.05 0 0 1-13.212-3.314A27.95 27.95 0 0 1 12 40c0-.686.018-1.208.059-1.691.681-11.684 8.697-21.797 19.942-25.143C34.562 12.393 37.255 12 40 12a27.87 27.87 0 0 1 13.684 3.579C62.513 20.525 68 29.884 68 40zM37.314 25.463L36 23.956c-2.242 1.956-3.986 4.033-6.023 7.17l1.678 1.089c1.928-2.971 3.568-4.927 5.659-6.752zm-3.039 12.964l-.65 1.891c4.593 1.577 8.6 4.093 12.609 7.918l1.381-1.447c-4.226-4.031-8.465-6.688-13.34-8.362zm13.371-11.759c3.752 5.722 5.865 12.003 6.279 18.67l-1.996.124c-.393-6.316-2.396-12.27-5.954-17.697l1.671-1.097z" fill="#fff"/></g><defs><linearGradient id="A" x1="0" y1="8000" x2="8000" y2="0" gradientUnits="userSpaceOnUse"><stop stop-color="#4d27a8"/><stop offset="1" stop-color="#a166ff"/></linearGradient><clipPath id="B"><path fill="#fff" d="M0 0h80v80H0z"/></clipPath></defs></svg>