<svg width="80" height="80" viewBox="0 0 80 80" fill="none" xmlns="http://www.w3.org/2000/svg">
<g clip-path="url(#clip0_113_231)">
<path d="M0 0H80V80H0V0Z" fill="url(#paint0_linear_113_231)"/>
<path d="M27 53H52V28H27V53ZM54 28H58V30H54V34H58V36H54V39H58V41H54V45H58V47H54V51H58V53H54V53.1359C53.9996 53.6302 53.8031 54.1041 53.4536 54.4536C53.1041 54.8031 52.6302 54.9996 52.1359 55H52V59H50V55H46V59H44V55H41V59H39V55H35V59H33V55H29V59H27V55H26.8641C26.3698 54.9996 25.8959 54.8031 25.5464 54.4536C25.1969 54.1041 25.0004 53.6302 25 53.1359V53H22V51H25V47H22V45H25V41H22V39H25V36H22V34H25V30H22V28H25V27.8641C25.0004 27.3698 25.1969 26.8959 25.5464 26.5464C25.8959 26.1969 26.3698 26.0004 26.8641 26H27V22H29V26H33V22H35V26H39V22H41V26H44V22H46V26H50V22H52V26H52.1359C52.6302 26.0004 53.1041 26.1969 53.4536 26.5464C53.8031 26.8959 53.9996 27.3698 54 27.8641V28ZM41 65.8759C40.9998 65.9088 40.9866 65.9402 40.9634 65.9634C40.9402 65.9866 40.9088 65.9998 40.8759 66H14.1241C14.0912 65.9998 14.0597 65.9867 14.0365 65.9635C14.0133 65.9403 14.0002 65.9088 14 65.8759V39.1241C14.0002 39.0912 14.0134 39.0598 14.0366 39.0366C14.0598 39.0134 14.0912 39.0002 14.1241 39H20V37H14.1241C13.5609 37.0007 13.021 37.2247 12.6229 37.6229C12.2247 38.021 12.0007 38.5609 12 39.1241V65.8759C12.0007 66.4391 12.2247 66.979 12.6229 67.3772C13.021 67.7753 13.5609 67.9993 14.1241 68H40.8759C41.4391 67.9993 41.979 67.7753 42.3771 67.3772C42.7753 66.979 42.9993 66.4391 43 65.8759V61H41V65.8759ZM68 14.1241V40.8759C67.9993 41.4391 67.7753 41.979 67.3772 42.3771C66.979 42.7753 66.4391 42.9993 65.8759 43H60V41H65.8759C65.9088 40.9998 65.9402 40.9866 65.9634 40.9634C65.9866 40.9402 65.9998 40.9088 66 40.8759V14.1241C65.9998 14.0912 65.9867 14.0597 65.9635 14.0365C65.9403 14.0133 65.9088 14.0002 65.8759 14H39.1241C39.0912 14.0002 39.0597 14.0133 39.0365 14.0365C39.0133 14.0597 39.0002 14.0912 39 14.1241V20H37V14.1241C37.0007 13.5609 37.2247 13.021 37.6229 12.6229C38.021 12.2247 38.5609 12.0007 39.1241 12H65.8759C66.4391 12.0007 66.979 12.2247 67.3772 12.6229C67.7753 13.021 67.9993 13.5609 68 14.1241Z" fill="white"/>
</g>
<defs>
<linearGradient id="paint0_linear_113_231" x1="0" y1="8000" x2="8000" y2="0" gradientUnits="userSpaceOnUse">
<stop stop-color="#C8511B"/>
<stop offset="1" stop-color="#FF9900"/>
</linearGradient>
<clipPath id="clip0_113_231">
<rect width="80" height="80" fill="white"/>
</clipPath>
</defs>
</svg>
