<svg width="80" height="80" viewBox="0 0 80 80" fill="none" xmlns="http://www.w3.org/2000/svg">
<g clip-path="url(#clip0_0_3262)">
<path d="M80 0H0V80H80V0Z" fill="url(#paint0_linear_0_3262)"/>
<path d="M15.4667 16.9708L23.2427 24.7575L24.7573 23.2428L16.9707 15.4668H22.9333V13.3335H14.4C14.1171 13.3335 13.8458 13.4459 13.6457 13.6459C13.4457 13.846 13.3333 14.1173 13.3333 14.4002V22.9335H15.4667V16.9708Z" fill="white"/>
<path d="M65.6 13.3335H57.0667V15.4668H63.0293L55.2427 23.2428L56.7573 24.7575L64.5333 16.9708V22.9335H66.6667V14.4002C66.6667 14.1173 66.5543 13.846 66.3543 13.6459C66.1542 13.4459 65.8829 13.3335 65.6 13.3335Z" fill="white"/>
<path d="M23.2427 55.2427L15.4667 63.0293V57.0667H13.3333V65.6C13.3333 65.8829 13.4457 66.1542 13.6457 66.3542C13.8458 66.5543 14.1171 66.6667 14.4 66.6667H22.9333V64.5333H16.9707L24.7573 56.7573L23.2427 55.2427Z" fill="white"/>
<path d="M64.5333 63.0293L56.7573 55.2427L55.2427 56.7573L63.0293 64.5333H57.0667V66.6667H65.6C65.8829 66.6667 66.1542 66.5543 66.3543 66.3542C66.5543 66.1542 66.6667 65.8829 66.6667 65.6V57.0667H64.5333V63.0293Z" fill="white"/>
<path d="M31.5733 24.7894C33.4601 23.9522 35.559 23.7171 37.5842 24.116C39.6094 24.5149 41.4624 25.5285 42.8907 27.0187C44.1631 28.3116 45.1259 29.8761 45.7067 31.5947C45.7721 31.7755 45.8852 31.9353 46.034 32.0571C46.1828 32.1789 46.3618 32.2582 46.552 32.2866C46.7422 32.315 46.9365 32.2915 47.1144 32.2185C47.2923 32.1455 47.4472 32.0258 47.5627 31.872C47.8865 31.4201 48.312 31.0504 48.8048 30.7929C49.2976 30.5354 49.844 30.3972 50.4 30.3894C52.0427 30.3894 54.0267 31.648 54.2293 35.1894C54.2435 35.4241 54.3348 35.6476 54.4891 35.8251C54.6435 36.0026 54.8521 36.1241 55.0827 36.1707C59.232 37.0454 61.3333 39.3707 61.3333 42.9974C61.3333 46.432 59.8293 48.4694 56.7253 49.2267L57.2267 51.296C61.248 50.3254 63.4667 47.3707 63.4667 42.9974C63.4667 38.624 60.928 35.5307 56.288 34.2614C55.744 30.1227 53.0027 28.256 50.4 28.256C49.2115 28.2453 48.0515 28.6195 47.0933 29.3227C46.4249 27.8886 45.5116 26.582 44.3947 25.4614C42.6648 23.6776 40.4316 22.4644 37.9936 21.9841C35.5557 21.5037 33.0292 21.7791 30.752 22.7734C28.6356 23.7688 26.838 25.3338 25.5607 27.2931C24.2834 29.2524 23.5768 31.5285 23.52 33.8667C23.52 34.0587 23.52 34.2507 23.52 34.4534C21.7425 35.0187 20.1991 36.1508 19.1261 37.6765C18.0531 39.2022 17.5096 41.0374 17.5787 42.9014C17.5787 43.104 17.5787 43.3067 17.5787 43.5094C17.6907 45.2673 18.3252 46.9517 19.4009 48.3466C20.4765 49.7416 21.9443 50.7834 23.616 51.3387L24.32 49.3227C23.0468 48.907 21.9268 48.1203 21.1039 47.0636C20.2809 46.0068 19.7925 44.7283 19.7013 43.392C19.7013 43.232 19.7013 43.072 19.7013 42.9014C19.6188 41.3479 20.1049 39.8175 21.0689 38.5964C22.0328 37.3753 23.4084 36.5471 24.9387 36.2667C25.1733 36.2062 25.3804 36.0677 25.5259 35.8738C25.6713 35.6799 25.7463 35.4423 25.7387 35.2C25.6869 34.786 25.6584 34.3693 25.6533 33.952C25.7032 32.0283 26.2821 30.1556 27.3264 28.5392C28.3707 26.9229 29.8401 25.6255 31.5733 24.7894Z" fill="white"/>
<path d="M57.0133 45.6749C57.0662 45.5145 57.0803 45.3438 57.0543 45.1769C57.0283 45.01 56.9631 44.8517 56.864 44.7149C56.7659 44.5771 56.6363 44.4645 56.4861 44.3866C56.3358 44.3087 56.1692 44.2677 56 44.2669H52.8C52.6869 43.348 52.2658 42.4945 51.6053 41.8456C51.3504 41.5893 51.0457 41.388 50.71 41.2541C50.3742 41.1202 50.0146 41.0565 49.6533 41.0669H38.688C38.4107 40.2029 37.8773 39.1149 37.056 38.9336H36.8533H32.5867C31.6373 38.9336 31.008 40.1283 30.688 41.0669H29.3973C29.0267 41.0507 28.6566 41.1104 28.3099 41.2425C27.9632 41.3746 27.6472 41.5762 27.3813 41.8349C26.9869 42.2216 26.6733 42.6829 26.4591 43.1921C26.2448 43.7012 26.1341 44.2479 26.1333 44.8003V58.1336C26.1333 58.4165 26.2457 58.6878 26.4457 58.8878C26.6458 59.0879 26.9171 59.2003 27.2 59.2003H51.7333C51.9564 59.1979 52.1732 59.1256 52.353 58.9935C52.5329 58.8615 52.6668 58.6764 52.736 58.4643L57.0133 45.6749ZM54.5173 46.4003L52.8 51.5629V46.4003H54.5173ZM50.6667 57.0669H28.2667V44.8003C28.2553 44.2827 28.4467 43.7813 28.8 43.4029C28.8616 43.3348 28.9376 43.2813 29.0225 43.2463C29.1074 43.2112 29.199 43.1955 29.2907 43.2003H31.424C31.6961 43.2008 31.9582 43.0972 32.1565 42.9108C32.3548 42.7244 32.4743 42.4693 32.4907 42.1976C32.596 41.8031 32.7501 41.4233 32.9493 41.0669H36.3733C36.5436 41.4093 36.6828 41.7663 36.7893 42.1336C36.7893 42.4165 36.9017 42.6878 37.1018 42.8878C37.3018 43.0879 37.5731 43.2003 37.856 43.2003H49.6747C49.7543 43.2034 49.8323 43.2231 49.9039 43.258C49.9755 43.2929 50.0391 43.3422 50.0907 43.4029C50.4576 43.7758 50.6643 44.2772 50.6667 44.8003V57.0669Z" fill="white"/>
</g>
<defs>
<linearGradient id="paint0_linear_0_3262" x1="-16.5685" y1="96.5718" x2="96.5685" y2="-16.5653" gradientUnits="userSpaceOnUse">
<stop stop-color="#1B660F"/>
<stop offset="1" stop-color="#6CAE3E"/>
</linearGradient>
<clipPath id="clip0_0_3262">
<rect width="80" height="80" fill="white"/>
</clipPath>
</defs>
</svg>
