<svg width="80" height="80" viewBox="0 0 80 80" fill="none" xmlns="http://www.w3.org/2000/svg">
<g clip-path="url(#clip0_102_206)">
<path d="M0 0H80V80H0V0Z" fill="url(#paint0_linear_102_206)"/>
<path d="M46.8419 32.1991L40.0131 40.12L47.4412 48.7841H44.6691L38 41V49H36V32H38V39L44.1813 32.1991H46.8419ZM64 48.2341L56 43.4331V32C56 31.6437 55.8119 31.315 55.5041 31.1359L44 24.4259V14.7519L64 26.5709V48.2341ZM65.5091 25.1391L43.5091 12.1391C43.3571 12.0494 43.1841 12.0014 43.0077 12C42.8312 11.9986 42.6575 12.0437 42.5041 12.1309C42.351 12.2186 42.2238 12.3451 42.1353 12.4977C42.0468 12.6503 42.0001 12.8236 42 13V25C42 25.355 42.1891 25.6841 42.4959 25.8641L54 32.5741V44C54 44.3509 54.185 44.6769 54.4859 44.8569L64.4859 50.8569C64.6376 50.9482 64.8108 50.9976 64.9878 50.9999C65.1648 51.0022 65.3392 50.9574 65.4931 50.87C65.6471 50.7829 65.7752 50.6565 65.8643 50.5036C65.9534 50.3507 66.0002 50.1769 66 50V26C66 25.6459 65.8141 25.3187 65.5091 25.1391ZM40.445 66.8631L17 54.3991V26.5709L37 14.7522V24.4509L26.4631 31.1562C26.3213 31.2467 26.2045 31.3714 26.1236 31.5189C26.0427 31.6663 26.0002 31.8318 26 32V49C26 49.3731 26.2081 49.715 26.5381 49.8869L39.9912 56.8869C40.28 57.0369 40.6241 57.0381 40.9119 56.8881L53.9641 50.1441L61.9959 54.9641L40.445 66.8631ZM64.515 54.1419L54.515 48.1419C54.3687 48.0542 54.2024 48.0054 54.0319 48.0001C53.8614 47.9949 53.6924 48.0333 53.5409 48.1119L40.455 54.8731L28 48.3931V32.5491L38.5369 25.8437C38.6787 25.7533 38.7955 25.6286 38.8764 25.4811C38.9573 25.3337 38.9998 25.1682 39 25V13C39.0002 12.8235 38.9536 12.6501 38.8651 12.4974C38.7766 12.3447 38.6492 12.2182 38.4959 12.1306C38.3425 12.0434 38.1688 11.9983 37.9923 11.9997C37.8159 12.0011 37.6429 12.0491 37.4909 12.1387L15.4909 25.1387C15.3413 25.2273 15.2174 25.3533 15.1313 25.5043C15.0452 25.6553 15 25.8262 15 26V55C15 55.3688 15.2041 55.7091 15.53 55.8831L39.9841 68.8831C40.1311 68.9612 40.2952 69.0013 40.4617 68.9999C40.6281 68.9985 40.7915 68.9556 40.9372 68.875L64.4841 55.875C64.6376 55.7899 64.7662 55.666 64.8568 55.5156C64.9474 55.3652 64.9969 55.1937 65.0003 55.0181C65.0033 54.8424 64.96 54.6689 64.8749 54.5151C64.7897 54.3613 64.6656 54.2326 64.515 54.1419Z" fill="white"/>
</g>
<defs>
<linearGradient id="paint0_linear_102_206" x1="0" y1="8000" x2="8000" y2="0" gradientUnits="userSpaceOnUse">
<stop stop-color="#C8511B"/>
<stop offset="1" stop-color="#FF9900"/>
</linearGradient>
<clipPath id="clip0_102_206">
<rect width="80" height="80" fill="white"/>
</clipPath>
</defs>
</svg>
