<svg width="80" height="80" viewBox="0 0 80 80" fill="none" xmlns="http://www.w3.org/2000/svg">
<g clip-path="url(#clip0_102_209)">
<path d="M0 0H80V80H0V0Z" fill="url(#paint0_linear_102_209)"/>
<path d="M30 53C22.8319 53 17 47.1681 17 40C17 32.8319 22.8319 27 30 27C37.1681 27 43 32.8319 43 40C43 47.1681 37.1681 53 30 53ZM60 59C60 61.2062 58.2062 63 56 63C53.7938 63 52 61.2062 52 59C52 56.7938 53.7938 55 56 55C58.2062 55 60 56.7938 60 59ZM56 17C58.2062 17 60 18.7937 60 21C60 23.2062 58.2062 25 56 25C53.7938 25 52 23.2062 52 21C52 18.7937 53.7938 17 56 17ZM59 36C61.2062 36 63 37.7938 63 40C63 42.2062 61.2062 44 59 44C56.7938 44 55 42.2062 55 40C55 37.7938 56.7938 36 59 36ZM44.9491 41H53.09C53.5681 43.8331 56.0331 46 59 46C62.3091 46 65 43.3091 65 40C65 36.6909 62.3091 34 59 34C56.0331 34 53.5681 36.1669 53.09 39H44.9491C44.8281 37.1476 44.361 35.3343 43.5719 33.6541L52.4459 25.8228C53.4419 26.5591 54.6691 27 56 27C59.3091 27 62 24.3091 62 21C62 17.6909 59.3091 15 56 15C52.6909 15 50 17.6909 50 21C50 22.2562 50.3891 23.4209 51.0509 24.3859L42.5812 31.8594C39.9041 27.7381 35.2709 25 30 25C21.7291 25 15 31.7291 15 40C15 48.2709 21.7291 55 30 55C35.2709 55 39.9041 52.2619 42.5812 48.1409L51.0509 55.6141C50.3655 56.6101 49.999 57.7909 50 59C50 62.3091 52.6909 65 56 65C59.3091 65 62 62.3091 62 59C62 55.6909 59.3091 53 56 53C54.6688 53 53.4419 53.4409 52.4459 54.1769L43.5719 46.3459C44.361 44.6657 44.8281 42.8524 44.9491 41Z" fill="white"/>
</g>
<defs>
<linearGradient id="paint0_linear_102_209" x1="0" y1="8000" x2="8000" y2="0" gradientUnits="userSpaceOnUse">
<stop stop-color="#4D27A8"/>
<stop offset="1" stop-color="#A166FF"/>
</linearGradient>
<clipPath id="clip0_102_209">
<rect width="80" height="80" fill="white"/>
</clipPath>
</defs>
</svg>
