<svg xmlns="http://www.w3.org/2000/svg" width="80" height="80" fill="none" xmlns:v="https://vecta.io/nano"><g clip-path="url(#B)"><path d="M0 0H80V80H0V0Z" fill="url(#A)"/><path d="M28.008 66H15.591l13.733-28.704 6.223 12.81L28.008 66zm2.212-31.447c-.082-.169-.211-.312-.37-.411s-.344-.153-.532-.153h-.003a1 1 0 0 0-.902.569L13.098 66.569a1 1 0 0 0 .058.965 1 1 0 0 0 .847.466h14.64c.19 0 .375-.054.536-.155a1 1 0 0 0 .37-.417l8.016-16.9c.064-.135.097-.283.096-.432s-.035-.297-.101-.431L30.22 34.553zM64.995 66H52.659L32.867 24.57a1 1 0 0 0-.37-.416c-.16-.101-.346-.154-.535-.154H23.89l.009-10H39.72L59.42 55.429c.082.171.21.315.37.416s.346.155.535.155h4.67v10zm1.002-12H60.96L41.259 12.571c-.082-.171-.21-.316-.371-.416a1 1 0 0 0-.536-.154H22.898a1 1 0 0 0-1.003.999l-.011 12c0 .266.104.52.294.708a1 1 0 0 0 .709.293h8.443l19.793 41.43a1 1 0 0 0 .904.57h13.971a1 1 0 0 0 .708-.292A1 1 0 0 0 67 67V55a1 1 0 0 0-1.002-1z" fill="#fff"/></g><defs><linearGradient id="A" x1="0" y1="8000" x2="8000" y2="0" gradientUnits="userSpaceOnUse"><stop stop-color="#c8511b"/><stop offset="1" stop-color="#f90"/></linearGradient><clipPath id="B"><path fill="#fff" d="M0 0h80v80H0z"/></clipPath></defs></svg>