<svg xmlns="http://www.w3.org/2000/svg" width="80" height="80" fill="none" xmlns:v="https://vecta.io/nano"><g clip-path="url(#B)"><path d="M0 0H80V80H0V0Z" fill="url(#A)"/><path d="M48.692 40.679c.739.683 1.109 1.599 1.109 2.748 0 1.251-.45 2.249-1.349 2.995s-2.109 1.12-3.626 1.12c-1.199 0-2.386-.256-3.56-.766v-1.532c1.391.46 2.577.689 3.56.689.97 0 1.716-.217 2.239-.65s.784-1.053.784-1.857c0-1.544-.975-2.317-2.928-2.317a17.45 17.45 0 0 0-1.818.095v-1.262l4.02-4.384h-5.665v-1.57h7.789v1.513l-3.943 4.173c.065-.013.127-.019.192-.019h.191c1.264 0 2.265.341 3.005 1.023zm-11.118-.334c.777.727 1.166 1.729 1.166 3.004 0 1.251-.452 2.263-1.359 3.035s-2.098 1.158-3.578 1.158c-1.3 0-2.519-.256-3.655-.766v-1.532c1.416.46 2.628.689 3.636.689.97 0 1.713-.219 2.229-.66s.776-1.074.776-1.905c0-.906-.243-1.564-.728-1.972s-1.276-.613-2.373-.613c-.791 0-1.779.065-2.966.192v-1.264l.364-5.724h6.985v1.569h-5.378l-.249 3.887c.702-.127 1.333-.191 1.894-.191 1.378 0 2.457.363 3.236 1.091zm14.383 14.032c-4.854.872-9.105 2.849-11.957 4.459-2.853-1.61-7.104-3.587-11.957-4.459-1.366-.245-8.174-1.667-8.174-5.602 0-1.824.653-3.033 1.907-5.193 1.498-2.583 3.362-5.798 3.362-10.427 0-3.308-.867-6.481-2.579-9.441l.612-.752c2.536 1.267 5.176 1.909 7.86 1.909 3.28 0 6.294-.861 8.969-2.561 2.674 1.7 5.688 2.561 8.968 2.561 2.684 0 5.325-.642 7.861-1.91l.611.752c-1.712 2.96-2.579 6.133-2.579 9.441 0 4.629 1.864 7.844 3.365 10.431 1.251 2.156 1.904 3.365 1.904 5.189 0 3.936-6.808 5.357-8.173 5.602zm4.904-21.222c0-3.158.891-6.185 2.646-8.997.111-.177.164-.384.151-.593s-.091-.408-.224-.57l-1.567-1.929a1 1 0 0 0-1.261-.247c-2.463 1.362-5.032 2.052-7.638 2.052-3.144 0-5.891-.845-8.399-2.583a1 1 0 0 0-1.139 0c-2.508 1.738-5.255 2.583-8.399 2.583-2.606 0-5.175-.69-7.638-2.052a1 1 0 0 0-1.261.247l-1.567 1.929a1 1 0 0 0-.073 1.163c1.756 2.812 2.646 5.839 2.646 8.997 0 4.091-1.715 7.047-3.093 9.426-1.35 2.323-2.176 3.866-2.176 6.194 0 5.389 7.516 7.159 9.82 7.572 4.86.873 9.104 2.933 11.808 4.507a1 1 0 0 0 1.006 0c2.704-1.574 6.947-3.633 11.807-4.507 2.304-.413 9.82-2.183 9.82-7.572 0-2.329-.826-3.871-2.176-6.197-1.378-2.376-3.093-5.332-3.093-9.422zm-3.867 27.001c-6.131 1.102-11.271 4.4-12.994 5.607-1.724-1.207-6.864-4.505-12.995-5.607C14.937 57.989 14 50.898 14 48.776c0-3.491 1.371-5.852 2.697-8.138 1.264-2.178 2.571-4.431 2.571-7.482 0-4.82-2.783-8.224-4.156-9.61l6.891-8.522C24.729 17.597 27.898 19 31.031 19c3.478 0 6.354-1.416 8.969-4.436C42.614 17.584 45.49 19 48.968 19c3.133 0 6.302-1.404 9.029-3.977 1.799 2.318 5.446 6.766 6.89 8.522-1.373 1.386-4.156 4.79-4.156 9.61 0 3.051 1.308 5.304 2.571 7.482C64.629 42.923 66 45.285 66 48.775c0 2.122-.938 9.213-13.006 11.381m12.038-20.523c-1.235-2.129-2.301-3.966-2.301-6.478 0-5.288 4.116-8.708 4.156-8.741a1.01 1.01 0 0 0 .367-.678c.013-.132 0-.264-.038-.391a1 1 0 0 0-.186-.346c-.067-.08-6.622-8.027-8.124-10.086a1 1 0 0 0-.747-.409c-.147-.01-.294.013-.431.067s-.26.139-.36.248c-2.52 2.695-5.502 4.18-8.4 4.18-3.204 0-5.724-1.427-8.174-4.629a1.04 1.04 0 0 0-1.588 0c-2.451 3.201-4.971 4.629-8.175 4.629-2.898 0-5.88-1.484-8.4-4.18-.204-.218-.494-.342-.791-.315a1 1 0 0 0-.747.409c-1.503 2.059-8.057 10.006-8.124 10.086a1 1 0 0 0-.222.736 1 1 0 0 0 .363.677c.042.034 4.158 3.454 4.158 8.742 0 2.512-1.066 4.35-2.301 6.478C13.576 42.031 12 44.747 12 48.775c0 6.712 5.477 11.703 14.652 13.351 6.907 1.241 12.682 5.622 12.739 5.667a1 1 0 0 0 1.218-.001c.058-.044 5.813-4.422 12.738-5.666C62.522 60.478 68 55.487 68 48.775c0-4.028-1.577-6.745-2.968-9.142" fill="#fff"/></g><defs><linearGradient id="A" x1="0" y1="8000" x2="8000" y2="0" gradientUnits="userSpaceOnUse"><stop stop-color="#4d27a8"/><stop offset="1" stop-color="#a166ff"/></linearGradient><clipPath id="B"><path fill="#fff" d="M0 0h80v80H0z"/></clipPath></defs></svg>