<svg xmlns="http://www.w3.org/2000/svg" width="80" height="80" fill="none" xmlns:v="https://vecta.io/nano"><g clip-path="url(#B)"><path d="M0 0H80V80H0V0Z" fill="url(#A)"/><path d="M60.836 42.893l.384-2.704c3.541 2.121 3.587 2.997 3.586 3.021-.006.005-.61.509-3.97-.317zm-1.943-.54c-6.12-1.852-14.643-5.762-18.092-7.392 0-.014.004-.027.004-.041 0-1.325-1.078-2.403-2.404-2.403s-2.402 1.078-2.402 2.403 1.078 2.403 2.402 2.403c.582 0 1.11-.217 1.527-.562 4.058 1.921 12.515 5.774 18.68 7.594L56.17 61.561c-.007.047-.01.094-.01.141 0 1.515-6.707 4.298-17.666 4.298-11.075 0-17.853-2.783-17.853-4.298a1.03 1.03 0 0 0-.009-.136l-5.094-37.207c4.409 3.035 13.892 4.641 22.962 4.641 9.056 0 18.523-1.6 22.941-4.626l-2.548 17.979zM15 20.478c.072-1.316 7.634-6.478 23.5-6.478s23.427 5.161 23.5 6.478v.449C61.13 23.878 51.33 27 38.5 27c-12.852 0-22.657-3.132-23.5-6.087v-.435zm49 .022c0-3.465-9.934-8.5-25.5-8.5S13 17.035 13 20.499l.094.754 5.548 40.524c.133 4.532 12.219 6.222 19.852 6.222 9.472 0 19.535-2.178 19.665-6.219l2.396-16.897c1.333.319 2.43.482 3.311.482 1.183 0 1.983-.289 2.468-.867a1.95 1.95 0 0 0 .436-1.659c-.259-1.384-1.902-2.876-5.248-4.785l2.376-16.762.102-.793z" fill="#fff"/></g><defs><linearGradient id="A" x1="0" y1="8000" x2="8000" y2="0" gradientUnits="userSpaceOnUse"><stop stop-color="#1b660f"/><stop offset="1" stop-color="#6cae3e"/></linearGradient><clipPath id="B"><path fill="#fff" d="M0 0h80v80H0z"/></clipPath></defs></svg>